<svg xmlns="http://www.w3.org/2000/svg" xmlns:xlink="http://www.w3.org/1999/xlink" width="1080" zoomAndPan="magnify" viewBox="0 0 810 533.04" height="700" preserveAspectRatio="xMidYMid meet" version="1.0"><defs><clipPath id="abe7cd445d"><path d="M 162.03125 52.40625 L 618.710938 52.40625 L 618.710938 464.914062 L 162.03125 464.914062 Z M 162.03125 52.40625 " clip-rule="nonzero"/></clipPath></defs><g clip-path="url(#abe7cd445d)"><path fill="#ede3d8" d="M 197.757812 283.128906 L 248.324219 187.636719 L 278.34375 186.796875 L 311.554688 231.46875 L 441.851562 143.425781 L 488.769531 52.546875 L 580.914062 89.417969 L 618.714844 170.207031 L 502.453125 317.066406 L 386.179688 382.40625 L 405.015625 444.660156 L 313.472656 464.769531 L 226.082031 438.175781 L 175.613281 430.019531 L 162.03125 398.5 Z M 197.757812 283.128906 " fill-opacity="1" fill-rule="nonzero"/></g><path fill="#000000" d="M 501.476562 92.105469 C 503.554688 89.691406 506.679688 88.222656 510.105469 88.386719 C 510.105469 88.386719 513.507812 88.628906 514.851562 89.554688 C 516.875 90.957031 517.679688 93.257812 522.265625 96.792969 C 525.070312 98.957031 529.546875 104.367188 533.066406 107.304688 C 542.136719 114.878906 554.527344 122.15625 563.816406 129.378906 C 574.449219 137.644531 581.410156 145.378906 581.410156 145.378906 C 583.859375 147.636719 586.425781 151.507812 584.820312 154.230469 C 580.035156 162.34375 576.09375 159.921875 552.695312 194.078125 C 543.433594 207.601562 543.332031 216.4375 527.253906 238.160156 C 523.421875 243.339844 502.632812 266.257812 497.949219 271.9375 C 485.984375 286.449219 475.484375 298.15625 461.296875 309.175781 C 451.625 316.683594 435.257812 321.550781 423.292969 327.691406 C 404.550781 337.3125 396.386719 345.542969 383.527344 351.640625 C 371.632812 357.277344 349.117188 358.40625 346.128906 364.269531 C 343.539062 369.34375 346.511719 382.519531 351.886719 394.34375 C 357.019531 405.648438 364.519531 415.738281 364.519531 415.738281 C 365.703125 419.296875 364.941406 423.210938 362.511719 426.066406 C 360.082031 428.921875 356.339844 430.296875 352.640625 429.691406 C 352.640625 429.691406 328.917969 420.402344 316.441406 418.371094 C 308.617188 417.09375 294.203125 416.757812 278.59375 414.96875 C 263.242188 413.203125 245.726562 405.859375 233.527344 404.316406 C 224.21875 403.136719 205.410156 405.703125 205.410156 405.703125 C 202.402344 405.214844 199.75 403.464844 198.109375 400.898438 C 196.46875 398.332031 196 395.183594 196.820312 392.25 C 196.820312 392.25 201.351562 374.953125 204.464844 366.589844 C 207.753906 357.765625 213.21875 348.675781 216.542969 339.296875 C 219.667969 330.476562 224.195312 317.398438 227.398438 306.253906 C 230.917969 294.007812 233.832031 275.863281 237.664062 265.808594 C 240.472656 258.449219 247.789062 250.914062 250.40625 245.925781 C 252.027344 242.835938 253.644531 239.398438 253.367188 235.886719 C 253.058594 231.964844 256.257812 228.769531 260.175781 228.496094 C 264.097656 228.21875 267.855469 230.117188 269.960938 233.4375 C 271.332031 235.597656 276.945312 247.058594 281.792969 252.898438 C 287.359375 259.609375 295.5625 263.527344 303.351562 273.683594 C 314.421875 267.542969 323.917969 265.261719 332.976562 260.335938 C 348.722656 251.765625 362.394531 241.386719 375.328125 233.242188 C 381.28125 229.496094 391.851562 220.460938 400.503906 214.628906 C 410.542969 207.855469 424.371094 202.789062 435.578125 192.621094 C 443.667969 185.28125 452.023438 172.304688 459.273438 164.449219 C 471.117188 151.609375 483.089844 138.8125 491.820312 120.3125 C 494.914062 113.753906 494.25 109.632812 497.171875 102.253906 C 497.882812 100.453125 500.0625 93.234375 501.476562 92.105469 Z M 297.332031 296.972656 C 294.914062 296.441406 292.667969 295.070312 291.066406 292.929688 C 286.234375 286.46875 282.273438 270.898438 277.46875 263.179688 C 273.5 256.808594 262.238281 246.613281 262.238281 246.613281 C 262.238281 246.613281 258.160156 254.136719 256.707031 258.144531 C 254.363281 264.617188 250.238281 279.949219 248.15625 285.441406 C 244.648438 294.710938 239.339844 299.957031 236.496094 307.898438 C 233.15625 317.21875 231.273438 331.234375 228.128906 341.363281 C 225.234375 350.683594 220.140625 362.269531 217.625 368.683594 C 215.082031 375.167969 209.695312 387.203125 213.03125 389.074219 C 215.820312 390.640625 231.410156 393.523438 240.796875 394.351562 C 252.070312 395.347656 268.683594 392.4375 280.679688 395.039062 C 294.898438 398.125 307.195312 405.304688 314.199219 406.761719 C 324.066406 408.8125 343.949219 412.109375 343.949219 412.109375 C 344.640625 401.246094 339.273438 393.515625 336.363281 385.953125 C 333.769531 379.222656 329.398438 376.148438 326.472656 366.714844 C 324.871094 361.546875 327.367188 355.996094 332.296875 353.773438 C 337.285156 351.519531 344.195312 351.152344 350.160156 348.527344 C 357.933594 345.109375 371.566406 337.222656 377.378906 334.945312 C 398.425781 326.699219 404.558594 325.269531 421.058594 316.863281 C 432.6875 310.9375 442.960938 299.960938 452.789062 293.339844 C 466.363281 284.191406 478.523438 275.46875 489.464844 262.890625 C 496.6875 254.582031 507.484375 232.550781 513.367188 225.5625 C 529.441406 206.460938 538.828125 198.207031 546.726562 186.226562 C 555.453125 173 566.640625 152.886719 566.640625 152.886719 C 566.640625 152.886719 556.320312 140.78125 549.945312 136.164062 C 543.558594 131.535156 534.554688 128.992188 528.324219 125.128906 C 522.6875 121.636719 512.558594 112.992188 512.558594 112.992188 C 512.558594 112.992188 502.476562 130.15625 498.03125 138.398438 C 489.394531 154.402344 482.898438 170.664062 473.078125 183.988281 C 467.316406 191.808594 455.148438 197.90625 446.203125 204.886719 C 435.164062 213.507812 418.054688 228.367188 406.839844 235.703125 C 398.21875 241.339844 385.390625 244.777344 378.917969 248.886719 C 366.375 256.847656 351.582031 262.859375 337.886719 272.21875 C 327.785156 279.125 319.605469 289.160156 306.542969 296.414062 C 303.601562 298.046875 300.226562 298.144531 297.332031 296.972656 Z M 297.332031 296.972656 " fill-opacity="1" fill-rule="evenodd"/></svg>