<svg xmlns="http://www.w3.org/2000/svg" xmlns:xlink="http://www.w3.org/1999/xlink" width="1080" zoomAndPan="magnify" viewBox="0 0 810 533.04" height="700" preserveAspectRatio="xMidYMid meet" version="1.0"><defs><clipPath id="f8b0fcd6a3"><path d="M 173.878906 97.730469 L 581.144531 97.730469 L 581.144531 426.390625 L 173.878906 426.390625 Z M 173.878906 97.730469 " clip-rule="nonzero"/></clipPath></defs><g clip-path="url(#f8b0fcd6a3)"><path fill="#ede3d8" d="M 242.472656 218.421875 L 263.097656 145.523438 L 316.511719 122.953125 L 551.460938 97.730469 L 581.121094 133.535156 L 569.789062 291.859375 L 574.441406 380.761719 L 513.652344 410.261719 L 440.039062 410.175781 L 402.964844 379.679688 L 408.589844 319.160156 L 432.769531 293.675781 L 503.148438 278.871094 L 504.53125 232.394531 L 332.570312 261.597656 L 329.796875 391.257812 L 284.816406 420.109375 L 229.566406 426.382812 L 173.894531 402.511719 L 174.117188 330.867188 L 217.199219 288.597656 L 256.03125 282.597656 Z M 242.472656 218.421875 " fill-opacity="1" fill-rule="nonzero"/></g><path fill="#000000" d="M 298.890625 246.375 C 299.660156 261.8125 297.078125 272.117188 299.382812 290.855469 C 300.679688 301.394531 306.160156 316.804688 308.203125 331.921875 L 308.207031 331.945312 C 309.667969 342.554688 303.914062 352.875 299.347656 361.6875 C 294.734375 370.589844 288.492188 380.996094 279.589844 387.269531 C 270.53125 393.652344 260.457031 391.785156 245.835938 394.945312 C 240.082031 396.1875 233.363281 398.054688 228.992188 397.519531 C 222.496094 396.722656 217.402344 396.664062 213.507812 393.300781 C 210.484375 390.691406 209.496094 385.835938 207.734375 382.171875 C 205.914062 378.371094 203.367188 375.734375 202.835938 371.253906 C 201.460938 359.6875 205.371094 349.457031 209.894531 340.960938 C 217.9375 325.84375 224.40625 317.734375 235 315.113281 C 244.183594 312.839844 257.332031 314.964844 266.71875 316.875 C 273.871094 318.328125 276.792969 318.558594 288.355469 317.953125 C 287.109375 308.574219 287.660156 299.683594 286.773438 292.324219 C 284.671875 274.960938 280.140625 260.234375 279.019531 245.75 C 278.476562 238.742188 281.226562 223.734375 281.675781 214.554688 C 282.0625 206.609375 282.0625 196.460938 281.710938 190.6875 C 281.488281 187.03125 279.632812 180.601562 279.566406 179.910156 C 279.097656 175.011719 282.691406 170.65625 287.585938 170.1875 C 295.367188 169.445312 302.828125 170.90625 312.863281 169.394531 C 320.265625 168.28125 329.976562 164.203125 337.574219 163.363281 C 361.0625 160.769531 383.578125 159.703125 394.136719 158.054688 C 401.730469 156.867188 406.175781 153.515625 448.238281 147.390625 C 458.078125 145.957031 473.449219 147.953125 487.4375 145.695312 C 503.703125 143.070312 517.773438 136.882812 541.554688 133.203125 C 546.414062 132.453125 550.964844 135.789062 551.71875 140.652344 C 551.921875 141.964844 551.824219 143.257812 551.480469 144.460938 C 550.175781 154.847656 546.605469 165.949219 545.832031 173.332031 C 542.890625 201.292969 543.347656 212.453125 543.332031 241.117188 C 543.328125 247.792969 544.21875 253.46875 543.984375 262.753906 C 543.59375 278.117188 541.523438 290.367188 542.074219 298.554688 C 542.984375 312.027344 546.789062 319.050781 545.769531 344.488281 C 545.726562 345.644531 545.457031 346.75 545.007812 347.761719 C 544.507812 348.886719 543.765625 349.925781 542.792969 350.792969 C 542.625 350.941406 542.449219 351.085938 542.265625 351.226562 C 530.703125 360.230469 521.519531 364.078125 512.378906 369.457031 C 499.765625 376.875 488.234375 384.339844 479.671875 386.476562 C 468.023438 389.378906 459.460938 381.304688 452.839844 378.773438 C 434.96875 371.941406 432.714844 357.828125 432.707031 351.273438 C 432.675781 323.421875 455.601562 300.359375 485.382812 299.800781 C 498.804688 299.550781 515.214844 301.648438 527.644531 315 C 527.875 315.246094 528.089844 315.480469 528.292969 315.703125 C 527.859375 299.417969 526.34375 290.988281 527.058594 262.769531 C 527.21875 256.363281 529.566406 244.941406 529.660156 239.742188 C 529.976562 221.902344 527.753906 216.039062 528.097656 205.03125 C 518.351562 207.082031 501.808594 206.867188 493.5625 208.625 C 422.136719 223.859375 404.9375 226.644531 346.109375 236.304688 C 332.730469 238.5 317.773438 243.582031 298.890625 246.375 Z M 297.5625 187.054688 C 297.652344 195.449219 295.828125 202.847656 295.941406 209.742188 C 296.039062 216.023438 298.070312 222.746094 298.222656 228.445312 C 318.46875 225.367188 330.476562 228.414062 345.90625 225.453125 C 364.746094 221.839844 392.78125 212.371094 406.003906 210.75 C 437.386719 206.898438 451.683594 208.15625 503.042969 197.367188 C 510.824219 195.734375 520 188.515625 529.058594 186.609375 C 529.453125 181.296875 531.957031 177.613281 532.671875 170.824219 C 533.179688 166.019531 531.8125 158.597656 532.527344 152.636719 C 515.429688 155.269531 500.652344 154.0625 487.914062 155.835938 C 411.132812 166.507812 407.0625 166.480469 397.554688 167.964844 C 386.953125 169.621094 363.828125 175.042969 340.046875 179.847656 C 331.144531 181.644531 321.574219 180.753906 313.113281 182.144531 C 307.433594 183.082031 302.574219 186.476562 297.5625 187.054688 Z M 290.894531 338.972656 C 286.707031 336.789062 280.109375 333.339844 272.363281 330.71875 C 263.074219 327.574219 251.933594 325.394531 241.792969 329.519531 C 235.292969 332.164062 226.320312 335.601562 221.507812 344.644531 C 218.421875 350.445312 217.488281 360.089844 218.429688 367.988281 C 218.921875 372.160156 222.226562 377.28125 225.140625 379.796875 C 228.34375 382.5625 235.75 386.640625 242.78125 385.121094 C 253.859375 382.722656 259.839844 379.117188 267.792969 374.5625 C 281.386719 366.773438 290.964844 352.496094 290.894531 338.972656 Z M 524.863281 342.078125 C 517.355469 330.558594 517.332031 330.078125 514.613281 327.152344 C 505.617188 317.492188 494.410156 310.789062 484.757812 311.472656 C 465.210938 312.851562 448.988281 334.492188 449.003906 352.886719 C 449.007812 355.628906 449.988281 363.136719 455.628906 367.464844 C 459.671875 370.5625 465.9375 371.523438 475.363281 369.175781 C 483.1875 367.226562 493.347656 365.699219 504.878906 358.710938 C 511.140625 354.914062 517.324219 347.695312 524.863281 342.078125 Z M 524.863281 342.078125 " fill-opacity="1" fill-rule="evenodd"/></svg>